<?xml version="1.0" encoding="UTF-8"?>
<!DOCTYPE svg PUBLIC "-//W3C//DTD SVG 1.1//EN" "http://www.w3.org/Graphics/SVG/1.1/DTD/svg11.dtd">
<svg xmlns="http://www.w3.org/2000/svg" version="1.1" width="410px" height="410px" style="shape-rendering:geometricPrecision; text-rendering:geometricPrecision; image-rendering:optimizeQuality; fill-rule:evenodd; clip-rule:evenodd" xmlns:xlink="http://www.w3.org/1999/xlink">
<g><path style="opacity:1" fill="#fefefe" d="M -0.5,-0.5 C 136.167,-0.5 272.833,-0.5 409.5,-0.5C 409.5,136.167 409.5,272.833 409.5,409.5C 272.833,409.5 136.167,409.5 -0.5,409.5C -0.5,272.833 -0.5,136.167 -0.5,-0.5 Z"/></g>
<g><path style="opacity:1" fill="#fef8ee" d="M 321.5,325.5 C 321.5,321.5 321.5,317.5 321.5,313.5C 322.833,313.5 324.167,313.5 325.5,313.5C 325.5,312.5 325.5,311.5 325.5,310.5C 324.167,310.5 322.833,310.5 321.5,310.5C 321.5,277.167 321.5,243.833 321.5,210.5C 332.198,211.429 336.031,206.762 333,196.5C 329.864,192.675 326.031,191.675 321.5,193.5C 321.831,171.66 321.497,149.994 320.5,128.5C 317.038,127.518 313.371,127.185 309.5,127.5C 285.969,88.2994 251.136,67.6327 205,65.5C 158.485,67.3252 123.318,87.9918 99.5,127.5C 97.901,127.232 96.5676,127.566 95.5,128.5C 94.6787,131.641 94.1787,134.975 94,138.5C 81.3522,170.238 81.3522,201.905 94,233.5C 94.5,265.832 94.6666,298.165 94.5,330.5C 64.5943,307.717 43.761,278.384 32,242.5C 12.1624,169.376 28.9958,106.209 82.5,53C 136.808,6.73816 198.141,-5.59517 266.5,16C 337.359,44.8703 377.192,97.3703 386,173.5C 389.059,223.32 374.726,267.32 343,305.5C 336.244,312.761 329.078,319.428 321.5,325.5 Z"/></g>
<g><path style="opacity:1" fill="#ffa261" d="M 278.5,24.5 C 279.5,24.5 280.5,24.5 281.5,24.5C 281.5,27.1667 281.5,29.8333 281.5,32.5C 284.167,32.5 286.833,32.5 289.5,32.5C 289.5,33.5 289.5,34.5 289.5,35.5C 286.833,35.5 284.167,35.5 281.5,35.5C 281.5,38.1667 281.5,40.8333 281.5,43.5C 280.5,43.5 279.5,43.5 278.5,43.5C 278.5,40.8333 278.5,38.1667 278.5,35.5C 275.833,35.5 273.167,35.5 270.5,35.5C 270.5,34.5 270.5,33.5 270.5,32.5C 273.167,32.5 275.833,32.5 278.5,32.5C 278.5,29.8333 278.5,27.1667 278.5,24.5 Z"/></g>
<g><path style="opacity:1" fill="#fee7be" d="M 157.5,31.5 C 166.53,31.3583 170.363,35.6916 169,44.5C 166.103,49.1549 161.937,50.6549 156.5,49C 149.642,42.6759 149.976,36.8426 157.5,31.5 Z"/></g>
<g><path style="opacity:1" fill="#fff8ec" d="M 158.5,34.5 C 166.957,35.437 168.624,39.2703 163.5,46C 157.212,47.378 154.379,44.878 155,38.5C 156.032,36.9733 157.199,35.64 158.5,34.5 Z"/></g>
<g><path style="opacity:1" fill="#fdefda" d="M 309.5,127.5 C 288.833,127.5 268.167,127.5 247.5,127.5C 228.152,113.662 206.819,109.829 183.5,116C 175.539,118.309 168.539,122.143 162.5,127.5C 141.5,127.5 120.5,127.5 99.5,127.5C 123.318,87.9918 158.485,67.3252 205,65.5C 251.136,67.6327 285.969,88.2994 309.5,127.5 Z"/></g>
<g><path style="opacity:1" fill="#fde6bb" d="M 247.5,127.5 C 219.167,127.5 190.833,127.5 162.5,127.5C 168.539,122.143 175.539,118.309 183.5,116C 206.819,109.829 228.152,113.662 247.5,127.5 Z"/></g>
<g><path style="opacity:1" fill="#ffd986" d="M 353.5,123.5 C 354.693,123.97 355.36,124.97 355.5,126.5C 355.167,127.5 354.833,128.5 354.5,129.5C 353.534,127.604 353.201,125.604 353.5,123.5 Z"/></g>
<g><path style="opacity:1" fill="#120e09" d="M 99.5,127.5 C 120.5,127.5 141.5,127.5 162.5,127.5C 190.833,127.5 219.167,127.5 247.5,127.5C 268.167,127.5 288.833,127.5 309.5,127.5C 313.371,127.185 317.038,127.518 320.5,128.5C 320.167,214.335 320.501,300.002 321.5,385.5C 340.5,385.5 359.5,385.5 378.5,385.5C 378.5,386.5 378.5,387.5 378.5,388.5C 264.167,388.5 149.833,388.5 35.5,388.5C 35.5,387.5 35.5,386.5 35.5,385.5C 55.1667,385.5 74.8333,385.5 94.5,385.5C 95.4993,300.002 95.8327,214.335 95.5,128.5C 96.5676,127.566 97.901,127.232 99.5,127.5 Z"/></g>
<g><path style="opacity:1" fill="#ffd881" d="M 359.5,127.5 C 360.376,127.369 361.043,127.702 361.5,128.5C 360.215,130.659 358.548,131.326 356.5,130.5C 357.34,129.265 358.34,128.265 359.5,127.5 Z"/></g>
<g><path style="opacity:1" fill="#ffd984" d="M 346.5,127.5 C 348.757,127.962 350.757,128.962 352.5,130.5C 349.688,131.393 347.688,130.393 346.5,127.5 Z"/></g>
<g><path style="opacity:1" fill="#5d4d28" d="M 288.5,342.5 C 288.5,272.167 288.5,201.833 288.5,131.5C 225.167,131.5 161.833,131.5 98.5,131.5C 98.5,201.833 98.5,272.167 98.5,342.5C 97.5008,272.002 97.1675,201.335 97.5,130.5C 161.5,130.5 225.5,130.5 289.5,130.5C 289.833,201.335 289.499,272.002 288.5,342.5 Z"/></g>
<g><path style="opacity:1" fill="#fed371" d="M 288.5,342.5 C 225.167,342.5 161.833,342.5 98.5,342.5C 98.5,272.167 98.5,201.833 98.5,131.5C 161.833,131.5 225.167,131.5 288.5,131.5C 288.5,201.833 288.5,272.167 288.5,342.5 Z"/></g>
<g><path style="opacity:1" fill="#fd9850" d="M 292.5,130.5 C 300.833,130.5 309.167,130.5 317.5,130.5C 317.5,215.5 317.5,300.5 317.5,385.5C 309.167,385.5 300.833,385.5 292.5,385.5C 292.5,300.5 292.5,215.5 292.5,130.5 Z"/></g>
<g><path style="opacity:1" fill="#ffd986" d="M 356.5,133.5 C 360.019,133.187 361.353,134.52 360.5,137.5C 358.625,136.591 357.292,135.257 356.5,133.5 Z"/></g>
<g><path style="opacity:1" fill="#ffd67b" d="M 350.5,133.5 C 351.376,133.369 352.043,133.702 352.5,134.5C 351.04,136.422 349.373,137.089 347.5,136.5C 348.34,135.265 349.34,134.265 350.5,133.5 Z"/></g>
<g><path style="opacity:1" fill="#ffda86" d="M 353.5,135.5 C 354.693,135.97 355.36,136.97 355.5,138.5C 355.167,139.5 354.833,140.5 354.5,141.5C 353.534,139.604 353.201,137.604 353.5,135.5 Z"/></g>
<g><path style="opacity:1" fill="#e3d7c6" d="M 95.5,128.5 C 95.8327,214.335 95.4993,300.002 94.5,385.5C 94.5,367.167 94.5,348.833 94.5,330.5C 94.6666,298.165 94.5,265.832 94,233.5C 81.3522,201.905 81.3522,170.238 94,138.5C 94.1787,134.975 94.6787,131.641 95.5,128.5 Z"/></g>
<g><path style="opacity:1" fill="#fee8c1" d="M 62.5,192.5 C 72.1018,192.727 75.6018,197.394 73,206.5C 66.5005,213.537 60.8339,212.87 56,204.5C 55.3121,198.871 57.4788,194.871 62.5,192.5 Z"/></g>
<g><path style="opacity:1" fill="#fee8bf" d="M 321.5,210.5 C 321.343,209.127 321.51,207.793 322,206.5C 326.942,208.759 330.109,207.259 331.5,202C 330.27,196.893 327.27,195.06 322.5,196.5C 321.614,195.675 321.281,194.675 321.5,193.5C 326.031,191.675 329.864,192.675 333,196.5C 336.031,206.762 332.198,211.429 321.5,210.5 Z"/></g>
<g><path style="opacity:1" fill="#fff8ec" d="M 61.5,196.5 C 66.7027,195.189 70.036,197.022 71.5,202C 70.0238,207.138 66.6904,208.805 61.5,207C 58.8805,203.502 58.8805,200.002 61.5,196.5 Z"/></g>
<g><path style="opacity:1" fill="#d2cbc0" d="M 320.5,128.5 C 321.497,149.994 321.831,171.66 321.5,193.5C 321.281,194.675 321.614,195.675 322.5,196.5C 327.27,195.06 330.27,196.893 331.5,202C 330.109,207.259 326.942,208.759 322,206.5C 321.51,207.793 321.343,209.127 321.5,210.5C 321.5,243.833 321.5,277.167 321.5,310.5C 321.5,311.5 321.5,312.5 321.5,313.5C 321.5,317.5 321.5,321.5 321.5,325.5C 321.5,345.5 321.5,365.5 321.5,385.5C 320.501,300.002 320.167,214.335 320.5,128.5 Z"/></g>
<g><path style="opacity:1" fill="#0b0804" d="M 234.5,198.5 C 236.225,198.843 236.725,199.843 236,201.5C 233.447,203.716 231.28,206.216 229.5,209C 230.944,211.449 232.778,213.615 235,215.5C 235.749,216.635 235.583,217.635 234.5,218.5C 231.833,216.167 229.167,213.833 226.5,211.5C 223.849,213.65 221.349,215.983 219,218.5C 217.77,217.725 217.437,216.725 218,215.5C 220.167,213.333 222.333,211.167 224.5,209C 221.403,206.609 219.237,203.776 218,200.5C 218.333,200.167 218.667,199.833 219,199.5C 221.349,202.017 223.849,204.35 226.5,206.5C 229.521,204.146 232.188,201.479 234.5,198.5 Z"/></g>
<g><path style="opacity:1" fill="#19150c" d="M 154.5,199.5 C 157.748,201.403 160.748,203.737 163.5,206.5C 165.316,205.185 166.983,203.685 168.5,202C 169.635,201.251 170.635,201.417 171.5,202.5C 169.684,204.817 167.684,206.984 165.5,209C 167.333,210.833 169.167,212.667 171,214.5C 171.5,216.667 170.667,217.5 168.5,217C 166.667,215.167 164.833,213.333 163,211.5C 160.651,214.017 158.151,216.35 155.5,218.5C 154.417,217.635 154.251,216.635 155,215.5C 157.018,213.65 158.851,211.65 160.5,209.5C 158.851,207.35 157.018,205.35 155,203.5C 154.51,202.207 154.343,200.873 154.5,199.5 Z"/></g>
<g><path style="opacity:1" fill="#080502" d="M 188.5,231.5 C 199.811,230.662 210.478,232.828 220.5,238C 227.119,243.728 229.952,250.894 229,259.5C 227,262.833 224.333,265.5 221,267.5C 218.863,286.302 208.363,294.802 189.5,293C 176.199,289.193 168.866,280.36 167.5,266.5C 160.211,263.019 157.711,257.353 160,249.5C 163.648,241.413 169.815,236.246 178.5,234C 181.991,233.262 185.325,232.429 188.5,231.5 Z"/></g>
<g><path style="opacity:1" fill="#fb964f" d="M 178.5,252.5 C 184.661,251.998 190.161,253.664 195,257.5C 202.05,252.249 209.05,252.249 216,257.5C 217.794,282.726 206.627,292.226 182.5,286C 174.994,279.157 171.827,270.657 173,260.5C 174.273,257.403 176.107,254.736 178.5,252.5 Z"/></g>
<g><path style="opacity:1" fill="#ffd67a" d="M 321.5,310.5 C 322.833,310.5 324.167,310.5 325.5,310.5C 325.5,311.5 325.5,312.5 325.5,313.5C 324.167,313.5 322.833,313.5 321.5,313.5C 321.5,312.5 321.5,311.5 321.5,310.5 Z"/></g>
<g><path style="opacity:1" fill="#fed371" d="M 98.5,345.5 C 161.833,345.5 225.167,345.5 288.5,345.5C 288.5,358.833 288.5,372.167 288.5,385.5C 225.167,385.5 161.833,385.5 98.5,385.5C 98.5,372.167 98.5,358.833 98.5,345.5 Z"/></g>
<g><path style="opacity:1" fill="#060401" d="M 108.5,359.5 C 116.5,359.5 124.5,359.5 132.5,359.5C 132.5,360.5 132.5,361.5 132.5,362.5C 124.5,362.5 116.5,362.5 108.5,362.5C 108.5,361.5 108.5,360.5 108.5,359.5 Z"/></g>
<g><path style="opacity:1" fill="#060401" d="M 108.5,370.5 C 129.177,370.167 149.844,370.5 170.5,371.5C 170.291,372.086 169.957,372.586 169.5,373C 149.169,373.5 128.836,373.667 108.5,373.5C 108.5,372.5 108.5,371.5 108.5,370.5 Z"/></g>
</svg>
